<?xml version="1.0" encoding="utf-8"?>
<!-- Generator: Adobe Illustrator 23.1.0, SVG Export Plug-In . SVG Version: 6.00 Build 0)  -->
<svg version="1.1"
	 id="svg2" xmlns:cc="http://creativecommons.org/ns#" xmlns:dc="http://purl.org/dc/elements/1.1/" xmlns:rdf="http://www.w3.org/1999/02/22-rdf-syntax-ns#" xmlns:svg="http://www.w3.org/2000/svg"
	 xmlns="http://www.w3.org/2000/svg" xmlns:xlink="http://www.w3.org/1999/xlink" x="0px" y="0px" viewBox="0 0 682.7 682.7"
	 style="enable-background:new 0 0 682.7 682.7;" xml:space="preserve">
<style type="text/css">
	.st0{fill:none;}
	.st1{fill:#5B5B5B;}
	.st2{opacity:0.9;clip-path:url(#SVGID_2_);}
	.st3{fill:#FCB106;}
	.st4{fill:#FFFFFF;}
	.st5{fill:#FF5151;}
	.st6{opacity:0.9;clip-path:url(#SVGID_4_);}
	.st7{opacity:0.9;clip-path:url(#SVGID_6_);}
	.st8{opacity:0.9;clip-path:url(#SVGID_8_);}
	.st9{fill:#720C0C;}
</style>
<rect y="0" class="st0" width="682.7" height="682.7"/>
<g id="g14">
	<g id="g20" transform="translate(103.9424,173.2969)">
		<path id="path22" class="st1" d="M-77.4,339.2c1.1,0.1,2.2,0.2,3.3,0.2c1.1,0.1,2.6,0.1,4.6,0.1c6.3,0,12-1,17.1-2.9
			c5.1-1.9,9.4-4.7,13-8.4c3.5-3.6,6.3-8.1,8.2-13.4c1.9-5.3,2.9-11.2,2.9-17.8c0-3.4-0.4-6.5-1.3-9.3c-0.9-2.8-2.3-5.1-4.3-7.1
			c-2-2-4.6-3.5-7.7-4.6c-3.2-1.1-7-1.6-11.4-1.6c-2.9,0-5.9,0.1-8.9,0.4L-77.4,339.2z M-5,295.8c0,9.8-1.6,18.6-4.8,26.4
			c-3.2,7.8-7.8,14.3-13.8,19.7c-6,5.4-13.2,9.5-21.8,12.5c-8.5,2.9-18.2,4.4-29,4.4c-4.1,0-8.8-0.2-14.1-0.7
			c-5.3-0.5-10.5-1.3-15.4-2.3l23.4-97.4c5.5-1.1,10.9-1.8,16-2.3c5.1-0.4,9.7-0.7,13.8-0.7c7.2,0,13.6,1,19.3,2.9
			c5.7,1.9,10.5,4.7,14.4,8.3c3.9,3.6,6.9,7.9,9,12.8C-6,284.3-5,289.8-5,295.8"/>
	</g>
	<g id="g24" transform="translate(151.5786,213.2637)">
		<path id="path26" class="st1" d="M-26.4,216.5h22.7L-28,317.5h-22.6L-26.4,216.5z"/>
	</g>
	<g id="g28" transform="translate(173.7437,172.6631)">
		<path id="path30" class="st1" d="M-2.7,341.2c2.2,0,4.5-0.2,6.7-0.5c2.2-0.3,4.2-0.9,6-1.8c1.7-0.9,3.2-2.1,4.3-3.7
			c1.1-1.6,1.7-3.7,1.7-6.2c0-1.9-0.5-3.6-1.6-5c-1.1-1.4-2.4-2.7-4.1-3.9c-1.7-1.2-3.5-2.2-5.5-3.2c-2-1-4.1-2-6.1-3.2
			c-2.6-1.6-5.1-3.2-7.4-4.9c-2.3-1.8-4.3-3.7-6-5.9c-1.7-2.2-3-4.6-3.9-7.3c-1-2.7-1.5-5.8-1.5-9.2c0-4.5,0.8-8.6,2.5-12.5
			c1.7-3.8,4.2-7.2,7.6-10c3.3-2.8,7.5-5,12.6-6.6c5-1.6,11-2.4,17.8-2.4c3.1,0,6.1,0.3,9,0.8s5.6,1.2,8.2,2
			c2.5,0.8,4.8,1.7,6.9,2.7c2.1,1,3.9,2,5.3,3L40.3,280c-2.4-1.8-5.4-3.4-8.9-4.7c-3.5-1.3-7.3-1.9-11.4-1.9c-2.2,0-4.4,0.2-6.4,0.6
			c-2,0.4-3.8,1-5.4,2c-1.6,0.9-2.8,2.1-3.7,3.6c-0.9,1.5-1.4,3.3-1.4,5.4c0,1.9,0.4,3.6,1.1,4.9c0.7,1.3,1.7,2.5,2.8,3.4
			c1.2,1,2.5,1.8,4.1,2.6c1.6,0.8,3.2,1.6,5,2.5c3,1.6,5.9,3.2,8.7,5c2.8,1.7,5.3,3.8,7.4,6c2.1,2.3,3.8,4.9,5.1,7.8
			c1.3,2.9,1.9,6.4,1.9,10.3c0,5.5-1,10.3-3.1,14.4c-2,4.1-4.9,7.5-8.6,10.2c-3.7,2.7-8.1,4.7-13.2,6c-5.1,1.3-10.8,2-17,2
			c-4.1,0-7.9-0.3-11.4-1c-3.5-0.7-6.8-1.5-9.6-2.4c-2.9-0.9-5.3-1.9-7.4-3c-2.1-1.1-3.8-2-5-2.9l9.6-17.3c1.2,0.8,2.6,1.6,4.2,2.5
			c1.6,0.9,3.5,1.7,5.6,2.5c2.1,0.8,4.3,1.4,6.6,2C-7.6,340.9-5.2,341.2-2.7,341.2"/>
	</g>
	<g id="g32" transform="translate(234.8911,166.6123)">
		<path id="path34" class="st1" d="M62.7,359.8c-4,1.9-8.4,3.5-13.3,4.7c-4.9,1.2-10.8,1.7-17.8,1.7c-6,0-11.5-1-16.5-3
			c-5-2-9.3-4.8-12.8-8.5c-3.5-3.7-6.3-8.2-8.2-13.5c-1.9-5.3-2.9-11.2-2.9-17.8c0-7.6,1.3-15.1,4-22.6c2.7-7.5,6.6-14.2,11.8-20
			c5.2-5.9,11.6-10.7,19.1-14.3c7.5-3.7,16.2-5.5,26-5.5c4.7,0,9.2,0.5,13.8,1.6c4.5,1.1,9.2,3,14.2,5.7l-8.2,17.6
			c-4.1-2.1-7.7-3.6-10.9-4.4c-3.2-0.8-6.7-1.2-10.3-1.2c-5.5,0-10.5,1.1-14.9,3.3c-4.4,2.2-8.2,5.3-11.4,9.1
			c-3.2,3.8-5.6,8.3-7.2,13.3c-1.7,5.1-2.5,10.4-2.5,16c0,8.5,1.9,14.8,5.6,18.6c3.7,3.9,9.1,5.8,16.1,5.8c4.7,0,9-0.5,12.9-1.5
			c3.9-1,7.6-2.2,11-3.8L62.7,359.8z"/>
	</g>
	<g id="g36" transform="translate(269.7207,202.5693)">
		<path id="path38" class="st1" d="M100,249.4c-4.1,6.5-8.1,13-12,19.4c-3.9,6.4-7.7,13-11.4,19.7h27.2c-0.5-5.9-1-12.2-1.5-18.9
			C101.7,262.8,101,256.1,100,249.4 M106.7,328.2c-0.2-3.8-0.4-7.5-0.7-11.1c-0.2-3.6-0.5-7.3-0.8-10.9H67.4
			c-1.9,3.6-4,7.2-6.1,10.9c-2.1,3.6-4.2,7.4-6.1,11.1H31.4c6.3-10.9,12.2-20.9,17.7-30.2c5.5-9.2,10.8-17.9,15.9-26.1
			c5.1-8.2,10.1-15.9,14.9-23.2c4.9-7.3,9.8-14.5,14.9-21.5H115c1.6,7,3,14.7,4.4,23.2c1.4,8.5,2.7,17.2,3.9,26.1
			c1.2,8.9,2.3,17.8,3.3,26.7c1,8.9,2,17.2,2.8,25H106.7z"/>
	</g>
	<g id="g40" transform="translate(313.7686,204.5391)">
		<path id="path42" class="st1" d="M147.1,243.3c-1.7,0-3.3,0-5.1,0.1c-1.7,0.1-3.2,0.2-4.4,0.3l-6.6,27.7h7.7
			c4.7,0,8.6-0.4,11.8-1.3c3.2-0.9,5.8-2,7.7-3.5c1.9-1.5,3.3-3.1,4.2-5c0.8-1.9,1.2-3.8,1.2-5.8c0-1.6-0.2-3.2-0.7-4.7
			c-0.5-1.5-1.4-2.8-2.6-4c-1.3-1.2-3-2.1-5.1-2.8C153.2,243.7,150.4,243.3,147.1,243.3 M147.9,224.1c6.5,0,12.2,0.8,17,2.3
			c4.9,1.6,8.9,3.6,12.1,6.3c3.2,2.6,5.6,5.7,7.1,9.3c1.6,3.5,2.3,7.3,2.3,11.1c0,3.2-0.4,6.4-1.1,9.5c-0.7,3.1-2.1,6.1-4.1,8.9
			c-2,2.8-4.7,5.4-8,7.8c-3.3,2.4-7.6,4.4-12.9,6c2.7,5.1,5.5,11.2,8.4,18.4c2.9,7.2,5.6,14.7,8.1,22.6h-24.3
			c-2.2-6.7-4.5-13.3-6.8-19.9c-2.3-6.6-4.8-12.2-7.6-17h-11.4l-8.9,36.9H95.3l23.7-99.5c5.2-1,10.3-1.6,15.3-2
			C139.3,224.3,143.8,224.1,147.9,224.1"/>
	</g>
	<g id="g44" transform="translate(345.9258,173.2969)">
		<path id="path46" class="st1" d="M181.6,339.2c1.1,0.1,2.2,0.2,3.3,0.2c1.1,0.1,2.6,0.1,4.6,0.1c6.3,0,12-1,17.1-2.9
			c5.1-1.9,9.4-4.7,13-8.4c3.5-3.6,6.3-8.1,8.2-13.4c1.9-5.3,2.9-11.2,2.9-17.8c0-3.4-0.4-6.5-1.3-9.3c-0.9-2.8-2.3-5.1-4.3-7.1
			c-2-2-4.6-3.5-7.7-4.6c-3.2-1.1-7-1.6-11.4-1.6c-2.9,0-5.9,0.1-8.9,0.4L181.6,339.2z M253.9,295.8c0,9.8-1.6,18.6-4.8,26.4
			c-3.2,7.8-7.8,14.3-13.8,19.7c-6,5.4-13.2,9.5-21.8,12.5c-8.5,2.9-18.2,4.4-29,4.4c-4.1,0-8.8-0.2-14.1-0.7
			c-5.3-0.5-10.5-1.3-15.4-2.3l23.5-97.4c5.5-1.1,10.9-1.8,16-2.3c5.1-0.4,9.7-0.7,13.8-0.7c7.2,0,13.6,1,19.3,2.9
			c5.7,1.9,10.5,4.7,14.4,8.3c3.9,3.6,6.9,7.9,9,12.8C252.9,284.3,253.9,289.8,253.9,295.8"/>
	</g>
	<g id="g48" transform="translate(395.5312,172.6631)">
		<path id="path50" class="st1" d="M234.6,341.2c2.2,0,4.5-0.2,6.7-0.5c2.2-0.3,4.2-0.9,6-1.8c1.7-0.9,3.2-2.1,4.3-3.7
			c1.1-1.6,1.7-3.7,1.7-6.2c0-1.9-0.5-3.6-1.6-5c-1.1-1.4-2.4-2.7-4.1-3.9c-1.7-1.2-3.5-2.2-5.5-3.2c-2-1-4.1-2-6.1-3.2
			c-2.6-1.6-5.1-3.2-7.4-4.9c-2.3-1.8-4.3-3.7-6-5.9c-1.7-2.2-3-4.6-3.9-7.3c-1-2.7-1.5-5.8-1.5-9.2c0-4.5,0.8-8.6,2.5-12.5
			c1.7-3.8,4.2-7.2,7.6-10c3.3-2.8,7.5-5,12.6-6.6c5-1.6,11-2.4,17.8-2.4c3.1,0,6.1,0.3,9,0.8c2.9,0.5,5.6,1.2,8.2,2
			c2.5,0.8,4.8,1.7,6.9,2.7c2.1,1,3.9,2,5.3,3l-9.5,16.7c-2.4-1.8-5.4-3.4-8.9-4.7c-3.5-1.3-7.3-1.9-11.4-1.9
			c-2.2,0-4.4,0.2-6.4,0.6c-2,0.4-3.8,1-5.4,2c-1.6,0.9-2.8,2.1-3.7,3.6c-0.9,1.5-1.4,3.3-1.4,5.4c0,1.9,0.4,3.6,1.1,4.9
			c0.7,1.3,1.7,2.5,2.8,3.4c1.2,1,2.5,1.8,4.1,2.6c1.6,0.8,3.2,1.6,5,2.5c3,1.6,5.9,3.2,8.7,5c2.8,1.7,5.3,3.8,7.4,6
			c2.1,2.3,3.8,4.9,5.1,7.8c1.3,2.9,1.9,6.4,1.9,10.3c0,5.5-1,10.3-3.1,14.4c-2,4.1-4.9,7.5-8.6,10.2c-3.7,2.7-8.1,4.7-13.2,6
			c-5.1,1.3-10.8,2-17,2c-4.1,0-7.9-0.3-11.4-1c-3.5-0.7-6.8-1.5-9.6-2.4c-2.9-0.9-5.3-1.9-7.4-3c-2.1-1.1-3.8-2-5-2.9l9.6-17.3
			c1.2,0.8,2.6,1.6,4.2,2.5c1.6,0.9,3.5,1.7,5.6,2.5c2.1,0.8,4.3,1.4,6.6,2C229.7,340.9,232.1,341.2,234.6,341.2"/>
	</g>
	<g id="g52" transform="translate(100.4209,138.124)">
		<path id="path54" class="st1" d="M-81.1,447.2c-0.9,3.8-1.8,7.4-2.8,10.6c-1,3.2-2.1,6.1-3.4,8.5c-0.6,1-1.2,1.9-2,2.9
			c-0.8,1-1.6,1.8-2.6,2.6c-1,0.8-2.1,1.4-3.5,1.9s-2.8,0.8-4.5,0.9l-0.6-5.1c2.1-0.2,3.9-1,5.4-2.3c1.5-1.3,2.8-3.1,3.9-5.4
			c1.1-2.3,2.1-5.1,2.9-8.4c0.8-3.3,1.7-7.1,2.6-11.3h19.3l-7.6,31.9h-5.8l6.4-26.9H-81.1z"/>
	</g>
	<g id="g56" transform="translate(120.4575,134.7666)">
		<path id="path58" class="st1" d="M-59.7,457.5c-1.2,0-2.2,0.3-3.1,1c-0.9,0.7-1.7,1.6-2.3,2.6c-0.6,1.1-1.1,2.2-1.4,3.5
			c-0.3,1.3-0.5,2.5-0.5,3.7c0,1.5,0.3,2.7,0.9,3.6c0.6,0.9,1.5,1.3,2.9,1.3c1.1,0,2.2-0.3,3.1-1c0.9-0.7,1.7-1.6,2.3-2.6
			c0.6-1.1,1.1-2.2,1.4-3.5c0.3-1.3,0.5-2.5,0.5-3.7c0-1.5-0.3-2.8-0.9-3.7C-57.3,458-58.3,457.5-59.7,457.5 M-63.9,478.1
			c-2.8,0-4.9-0.8-6.4-2.5c-1.5-1.7-2.2-3.9-2.2-6.7v-0.8c0-0.3,0-0.5,0-0.8h-5.2l-2.5,10.1h-5.5l5.8-24.1h5.5l-2.2,9.5h5
			c0.4-1.3,1-2.6,1.7-3.8c0.7-1.2,1.6-2.3,2.7-3.2c1-0.9,2.2-1.7,3.6-2.2c1.4-0.6,2.9-0.8,4.5-0.8c2.8,0,4.9,0.8,6.4,2.5
			c1.5,1.7,2.2,3.9,2.2,6.7c0,1.8-0.3,3.7-0.8,5.6c-0.5,1.9-1.4,3.6-2.5,5.2c-1.1,1.6-2.5,2.9-4.2,3.9
			C-59.6,477.6-61.6,478.1-63.9,478.1"/>
	</g>
	<g id="g60" transform="translate(133.3555,134.2539)">
		<path id="path62" class="st1" d="M-45.9,459.1c-1,0-2,0.2-3.1,0.5c-1,0.4-1.9,0.8-2.7,1.4c-0.4,1.5-0.8,2.9-1,4.2
			c-0.2,1.3-0.3,2.4-0.3,3.4c0,1.9,0.3,3.3,0.9,4.1c0.6,0.8,1.6,1.2,2.9,1.2c1,0,2-0.3,2.9-0.8c0.9-0.6,1.7-1.3,2.3-2.3
			c0.7-1,1.2-2,1.5-3.3c0.4-1.2,0.6-2.5,0.6-3.9c0-1.4-0.3-2.5-0.9-3.4C-43.4,459.5-44.5,459.1-45.9,459.1 M-33.7,447.2
			c-0.7,0.2-1.6,0.3-2.6,0.4c-1,0.1-2.2,0.3-3.5,0.4c-2.7,0.3-4.8,1.1-6.4,2.4c-1.6,1.2-2.9,3.1-3.8,5.5c0.8-0.4,1.7-0.8,2.7-1
			c1-0.3,2-0.4,2.9-0.4c2.4,0,4.3,0.7,5.8,2.2c1.4,1.4,2.2,3.5,2.2,6.3c0,2.3-0.3,4.4-1,6.3c-0.6,1.9-1.6,3.6-2.7,5
			c-1.2,1.4-2.6,2.5-4.3,3.3c-1.7,0.8-3.5,1.2-5.6,1.2c-2.6,0-4.6-0.8-6.1-2.4c-1.5-1.6-2.2-4-2.2-7.1c0-2.2,0.3-4.5,0.9-6.8
			c0.6-2.3,1.2-4.4,1.8-6.3c0.6-1.8,1.4-3.5,2.3-5s2-2.7,3.4-3.8c1.3-1.1,2.9-1.9,4.6-2.6c1.7-0.7,3.8-1.1,6-1.4
			c1.4-0.2,2.5-0.3,3.4-0.4c0.9-0.1,1.7-0.3,2.5-0.5L-33.7,447.2z"/>
	</g>
	<g id="g64" transform="translate(153.5264,125.1143)">
		<path id="path66" class="st1" d="M-24.3,487.1h-5.6l5.8-24.1h5.6L-24.3,487.1z M-42,475.8c-0.6,0-1.3,0-1.9,0.1
			c-0.6,0.1-1.1,0.2-1.6,0.3l-1.6,7c0.4,0.1,0.9,0.1,1.4,0.2c0.5,0,1.2,0.1,1.9,0.1c2,0,3.5-0.4,4.6-1.1c1.1-0.8,1.6-1.9,1.6-3.3
			c0-1-0.4-1.7-1.1-2.3C-39.3,476-40.4,475.8-42,475.8 M-47.8,463.1h5.5l-2.2,8.9c0.6-0.2,1.3-0.3,2-0.3c0.7-0.1,1.4-0.1,2-0.1
			c2.6,0,4.6,0.6,6.1,1.7c1.4,1.2,2.2,2.9,2.2,5.2c0,1.5-0.3,2.8-0.9,3.9c-0.6,1.2-1.4,2.1-2.4,2.9c-1.1,0.8-2.3,1.4-3.9,1.8
			c-1.5,0.4-3.2,0.6-5.1,0.6c-1.5,0-3-0.1-4.5-0.3c-1.5-0.2-3-0.5-4.5-0.9L-47.8,463.1z"/>
	</g>
	<g id="g68" transform="translate(164.4448,134.833)">
		<path id="path70" class="st1" d="M-12.6,457.3c-0.9,0-1.8,0.2-2.6,0.6c-0.8,0.4-1.6,0.9-2.2,1.5c-0.6,0.6-1.2,1.4-1.7,2.3
			c-0.5,0.9-0.8,1.8-1,2.8c3.7-0.1,6.4-0.6,8-1.3c1.7-0.8,2.5-1.9,2.5-3.5c0-0.6-0.2-1.2-0.7-1.7C-10.7,457.6-11.5,457.3-12.6,457.3
			 M-26,468.7c0-2.1,0.3-4,1-6c0.7-1.9,1.6-3.6,2.9-5.1c1.2-1.5,2.7-2.7,4.5-3.6c1.7-0.9,3.7-1.3,5.9-1.3c2.3,0,4.1,0.6,5.4,1.8
			c1.3,1.2,1.9,2.7,1.9,4.6c0,1.9-0.5,3.5-1.4,4.7c-1,1.2-2.2,2.1-3.7,2.8c-1.5,0.7-3.2,1.1-5.2,1.4c-1.9,0.2-3.9,0.4-5.8,0.5
			c0,0.1,0,0.1,0,0.2v0.5c0,2.8,1.8,4.2,5.3,4.2c2.1,0,4.2-0.4,6.3-1.3l0.5,4.5c-0.7,0.3-1.8,0.7-3.1,1c-1.4,0.3-2.9,0.5-4.6,0.5
			c-1.7,0-3.2-0.2-4.4-0.7c-1.2-0.5-2.2-1.2-3-2c-0.8-0.9-1.4-1.9-1.7-3C-25.8,471.2-26,470-26,468.7"/>
	</g>
	<g id="g72" transform="translate(180.9238,136.7461)">
		<path id="path74" class="st1" d="M5,451.4l-2.2,9.3c1-0.7,2-1.5,3-2.4c1-0.9,2-1.7,2.9-2.5c0.9-0.8,1.8-1.6,2.5-2.4
			c0.8-0.8,1.4-1.4,2-2h6.7c-0.8,0.9-1.6,1.8-2.6,2.7c-1,1-2,1.9-3.1,2.9c-1.1,1-2.2,2-3.3,2.9c-1.1,1-2.3,1.9-3.4,2.7
			c0.8,0.8,1.5,1.7,2.3,2.7c0.8,1,1.5,2.1,2.2,3.3c0.7,1.1,1.4,2.3,2,3.5c0.6,1.2,1.1,2.3,1.5,3.3H9.3c-0.9-2-2-4-3.3-6.1
			c-1.3-2-2.7-3.7-4.1-5.1l-2.7,11.2h-5.5l5.8-24.1H5z"/>
	</g>
	<g id="g76" transform="translate(196.6963,134.6543)">
		<path id="path78" class="st1" d="M21.9,457.9c-0.6-0.1-1.2-0.2-2-0.2c-1.4,0-2.7,0.3-3.8,0.9c-1.2,0.6-2.2,1.4-3,2.4
			c-0.8,1-1.5,2.1-2,3.4c-0.5,1.3-0.7,2.6-0.7,4.1c0,0.7,0.1,1.4,0.2,2c0.1,0.6,0.3,1.2,0.6,1.6c0.3,0.5,0.7,0.8,1.2,1.1
			s1.1,0.4,1.9,0.4c1,0,1.8-0.2,2.6-0.6c0.8-0.4,1.4-1,2.1-1.7c0-0.8,0.1-1.5,0.2-2.3c0.1-0.7,0.3-1.4,0.4-2.1L21.9,457.9z
			 M24.9,468.3c-0.1,0.3-0.2,0.9-0.3,1.7c-0.1,0.8-0.1,1.5-0.1,2.2c0,0.9,0.1,1.8,0.2,2.6c0.2,0.8,0.4,1.7,0.7,2.6l-5,0.7
			c-0.4-0.7-0.7-1.5-0.9-2.3c-0.8,0.7-1.7,1.3-2.8,1.8c-1.1,0.5-2.4,0.8-3.8,0.8c-1.4,0-2.7-0.2-3.7-0.7c-1-0.5-1.9-1.1-2.5-2
			c-0.6-0.8-1.1-1.8-1.4-3c-0.3-1.1-0.5-2.4-0.5-3.7c0-2.2,0.4-4.3,1.2-6.3c0.8-1.9,1.9-3.6,3.3-5s3.1-2.5,5.1-3.3
			c2-0.8,4.1-1.2,6.4-1.2c1.2,0,2.4,0.1,3.6,0.3c1.2,0.2,2.4,0.6,3.7,1.1L24.9,468.3z"/>
	</g>
	<g id="g80" transform="translate(204.1567,127.2041)">
		<path id="path82" class="st1" d="M29.9,480.7c0.3,0.1,0.6,0.1,1,0.1c0.3,0,0.7,0,1,0c1.5,0,2.8-0.3,4-0.9c1.2-0.6,2.2-1.3,3-2.3
			c0.8-1,1.5-2.1,1.9-3.4c0.4-1.3,0.7-2.7,0.7-4.2c0-0.7-0.1-1.3-0.2-1.9c-0.2-0.6-0.4-1.1-0.8-1.6c-0.4-0.5-0.8-0.8-1.4-1.1
			c-0.6-0.3-1.4-0.4-2.3-0.4c-0.6,0-1.2,0-1.7,0.1c-0.6,0.1-1,0.2-1.5,0.3L29.9,480.7z M47,469.6c0,2.2-0.3,4.2-1,6.1
			c-0.7,1.9-1.7,3.6-3,5c-1.3,1.4-3,2.6-4.9,3.4c-1.9,0.8-4.1,1.3-6.6,1.3c-0.4,0-0.9,0-1.3-0.1c-0.4,0-0.9-0.1-1.3-0.2l-2,8.3h-5.6
			l7.6-31.6c1.3-0.5,2.7-0.8,4.2-1.1c1.5-0.3,3.1-0.4,4.7-0.4c1.6,0,3,0.2,4.2,0.7c1.2,0.5,2.1,1.1,2.9,2c0.7,0.8,1.3,1.8,1.7,2.9
			C46.8,467.1,47,468.4,47,469.6"/>
	</g>
	<g id="g84" transform="translate(216.7275,136.2559)">
		<path id="path86" class="st1" d="M43.3,452.9c1.2-0.4,2.6-0.7,4.1-1c1.5-0.3,3.2-0.5,5.1-0.5c1.4,0,2.5,0.2,3.5,0.6
			c0.9,0.4,1.7,1,2.4,1.7c0.9-0.5,2-1,3.2-1.5c1.3-0.5,2.7-0.8,4.3-0.8c1.4,0,2.6,0.2,3.6,0.6c1,0.4,1.8,1,2.4,1.7
			c0.6,0.7,1.1,1.5,1.3,2.5c0.3,1,0.4,2,0.4,3.2c0,1.3-0.2,2.6-0.5,4l-3,12.7h-5.6l2.8-12.1c0.2-0.6,0.3-1.2,0.4-1.9
			c0.1-0.7,0.2-1.4,0.2-2.1c0-0.5-0.1-1-0.2-1.4c-0.1-0.5-0.3-0.9-0.6-1.2c-0.3-0.3-0.7-0.6-1.1-0.8c-0.5-0.2-1.1-0.3-1.8-0.3
			c-0.8,0-1.6,0.2-2.3,0.5c-0.8,0.3-1.4,0.6-1.9,1c0.1,0.6,0.2,1.2,0.2,1.9c0,0.6,0,1.3-0.1,1.9c-0.1,0.7-0.2,1.3-0.4,2l-3,12.7
			h-5.6l2.9-12.1c0.2-0.6,0.3-1.2,0.4-1.9c0.1-0.7,0.2-1.4,0.2-2.1c0-1-0.2-1.9-0.7-2.6s-1.4-1.1-2.7-1.1c-0.6,0-1.2,0-1.7,0.1
			c-0.6,0.1-1.1,0.2-1.5,0.3L43.4,476h-5.6L43.3,452.9z"/>
	</g>
	<g id="g88" transform="translate(247.4834,125.1143)">
		<path id="path90" class="st1" d="M76.2,487.1h-5.6l5.8-24.1H82L76.2,487.1z M58.5,475.8c-0.6,0-1.3,0-1.9,0.1
			c-0.6,0.1-1.1,0.2-1.6,0.3l-1.6,7c0.4,0.1,0.9,0.1,1.4,0.2c0.5,0,1.2,0.1,1.9,0.1c2,0,3.5-0.4,4.6-1.1c1.1-0.8,1.6-1.9,1.6-3.3
			c0-1-0.4-1.7-1.1-2.3C61.2,476,60.1,475.8,58.5,475.8 M52.7,463.1h5.5l-2.2,8.9c0.6-0.2,1.3-0.3,2-0.3c0.7-0.1,1.4-0.1,2-0.1
			c2.6,0,4.6,0.6,6.1,1.7c1.4,1.2,2.2,2.9,2.2,5.2c0,1.5-0.3,2.8-0.9,3.9c-0.6,1.2-1.4,2.1-2.4,2.9c-1.1,0.8-2.3,1.4-3.9,1.8
			c-1.5,0.4-3.2,0.6-5.1,0.6c-1.5,0-3-0.1-4.5-0.3c-1.5-0.2-3-0.5-4.5-0.9L52.7,463.1z"/>
	</g>
	<g id="g92" transform="translate(262.8945,132.0742)">
		<path id="path94" class="st1" d="M92.7,465.8c1.9,0,3.3-0.3,4.3-0.9c1-0.6,1.5-1.4,1.5-2.6c0-0.8-0.3-1.4-0.8-1.8
			c-0.5-0.4-1.3-0.6-2.2-0.6c-1.4,0-2.7,0.4-3.7,1.1c-1,0.8-1.7,2.1-2.1,4.1l-0.1,0.6H92.7z M87.2,476.1c0.4,0.1,1,0.1,1.6,0.2
			c0.7,0.1,1.4,0.1,2.1,0.1c0.8,0,1.6-0.1,2.4-0.2c0.8-0.1,1.4-0.3,2-0.7c0.6-0.3,1.1-0.7,1.4-1.2c0.4-0.5,0.6-1.2,0.6-2
			c0-1-0.4-1.6-1.1-2c-0.8-0.4-1.9-0.6-3.4-0.6h-4.2L87.2,476.1z M84.3,465.1c0.4-1.8,1-3.3,1.8-4.5c0.7-1.2,1.6-2.2,2.6-2.9
			c1-0.7,2.1-1.3,3.4-1.6c1.2-0.3,2.5-0.5,3.9-0.5c2.5,0,4.4,0.6,5.8,1.7c1.3,1.1,2,2.5,2,4.3c0,1.5-0.4,2.8-1.2,3.9
			c-0.8,1.1-1.9,1.9-3.3,2.3c1.1,0.4,1.9,1,2.6,1.8c0.6,0.9,0.9,1.8,0.9,2.9c0,2.7-1.1,4.7-3.2,6.1c-2.1,1.4-5.3,2.1-9.4,2.1
			c-1.5,0-3.1-0.1-4.7-0.3c-1.6-0.2-3.1-0.5-4.5-0.9L84.3,465.1z"/>
	</g>
	<g id="g96" transform="translate(282.708,134.7666)">
		<path id="path98" class="st1" d="M113.9,457.5c-1.2,0-2.3,0.3-3.2,1c-0.9,0.7-1.7,1.6-2.3,2.6c-0.6,1.1-1.1,2.2-1.4,3.5
			c-0.3,1.3-0.5,2.5-0.5,3.7c0,1.5,0.3,2.7,0.9,3.6c0.6,0.9,1.6,1.3,3.1,1.3c1.2,0,2.3-0.3,3.2-1c0.9-0.7,1.7-1.6,2.3-2.6
			c0.6-1.1,1.1-2.2,1.4-3.5c0.3-1.3,0.5-2.5,0.5-3.7c0-1.5-0.3-2.8-0.9-3.7C116.4,458,115.4,457.5,113.9,457.5 M109.7,478.1
			c-2.9,0-5-0.8-6.5-2.5c-1.5-1.7-2.3-3.9-2.3-6.7c0-1.8,0.3-3.6,0.8-5.5c0.6-1.9,1.4-3.6,2.5-5.2c1.1-1.6,2.6-2.9,4.3-3.9
			c1.7-1,3.7-1.5,6.1-1.5c2.9,0,5,0.8,6.5,2.5c1.5,1.7,2.3,3.9,2.3,6.7c0,1.8-0.3,3.7-0.8,5.6c-0.5,1.9-1.4,3.6-2.5,5.2
			c-1.1,1.6-2.5,2.9-4.3,3.9C114.1,477.6,112,478.1,109.7,478.1"/>
	</g>
	<g id="g100" transform="translate(295.7842,134.3213)">
		<path id="path102" class="st1" d="M127.9,458.9c-1.3,0-2.4,0.3-3.4,0.9c-1,0.6-1.8,1.4-2.4,2.4c-0.6,1-1.1,2.1-1.4,3.4
			c-0.3,1.3-0.5,2.6-0.5,4c0,1.2,0.3,2.1,0.9,2.9c0.6,0.8,1.5,1.2,2.9,1.2c1.2,0,2.2-0.4,3.2-1.1c0.9-0.7,1.7-1.7,2.4-3
			c0.7-1.3,1.2-2.8,1.6-4.5c0.4-1.7,0.6-3.5,0.7-5.4c-0.5-0.3-1.1-0.5-1.7-0.7C129.5,459,128.8,458.9,127.9,458.9 M124.3,446.9
			c-0.9,0-1.7,0.1-2.5,0.3c-0.7,0.2-1.4,0.4-1.9,0.6l-0.4-4.7c0.6-0.2,1.4-0.4,2.4-0.6c1-0.2,2-0.3,3.2-0.3c1.8,0,3.5,0.3,5,0.8
			c1.5,0.6,2.8,1.4,3.8,2.6c1.1,1.2,1.9,2.7,2.5,4.6c0.6,1.9,0.9,4.1,0.9,6.7c0,2.7-0.2,5.3-0.7,7.9c-0.5,2.6-1.3,4.9-2.4,6.9
			c-1.1,2-2.5,3.7-4.3,4.9c-1.8,1.2-3.9,1.9-6.5,1.9c-2.8,0-4.9-0.8-6.3-2.4c-1.4-1.6-2.1-3.8-2.1-6.6c0-2,0.3-3.9,0.8-5.8
			c0.6-1.8,1.4-3.5,2.5-4.9c1.1-1.4,2.4-2.5,4-3.4c1.6-0.8,3.4-1.3,5.5-1.3c0.7,0,1.4,0.1,2.2,0.2c0.8,0.1,1.5,0.3,2.1,0.6
			c-0.1-1.2-0.3-2.3-0.6-3.3c-0.3-1-0.7-1.9-1.3-2.6c-0.6-0.7-1.3-1.3-2.3-1.7C126.8,447.1,125.7,446.9,124.3,446.9"/>
	</g>
	<g id="g104" transform="translate(311.4844,125.1143)">
		<path id="path106" class="st1" d="M144.7,487.1h-5.6l2.4-10.1h-8.7l-2.4,10.1h-5.6l5.8-24.1h5.6l-2.3,9.4h8.7l2.3-9.4h5.6
			L144.7,487.1z"/>
	</g>
	<g id="g108" transform="translate(322.2256,134.7666)">
		<path id="path110" class="st1" d="M156.2,457.5c-1.2,0-2.3,0.3-3.2,1c-0.9,0.7-1.7,1.6-2.3,2.6c-0.6,1.1-1.1,2.2-1.4,3.5
			c-0.3,1.3-0.5,2.5-0.5,3.7c0,1.5,0.3,2.7,0.9,3.6c0.6,0.9,1.6,1.3,3.1,1.3c1.2,0,2.3-0.3,3.2-1c0.9-0.7,1.7-1.6,2.3-2.6
			c0.6-1.1,1.1-2.2,1.4-3.5c0.3-1.3,0.5-2.5,0.5-3.7c0-1.5-0.3-2.8-0.9-3.7C158.7,458,157.7,457.5,156.2,457.5 M152,478.1
			c-2.9,0-5-0.8-6.5-2.5c-1.5-1.7-2.3-3.9-2.3-6.7c0-1.8,0.3-3.6,0.8-5.5c0.6-1.9,1.4-3.6,2.5-5.2c1.1-1.6,2.6-2.9,4.3-3.9
			c1.7-1,3.7-1.5,6.1-1.5c2.9,0,5,0.8,6.5,2.5c1.5,1.7,2.3,3.9,2.3,6.7c0,1.8-0.3,3.7-0.8,5.6c-0.5,1.9-1.4,3.6-2.5,5.2
			c-1.1,1.6-2.5,2.9-4.3,3.9C156.4,477.6,154.3,478.1,152,478.1"/>
	</g>
	<g id="g112" transform="translate(334.5674,126.5596)">
		<path id="path114" class="st1" d="M169.4,482.7c-0.2-0.9-0.3-1.9-0.6-3c-0.2-1.1-0.4-2.3-0.7-3.5c-0.2-1.2-0.5-2.4-0.7-3.6
			s-0.5-2.3-0.7-3.3c-0.9,2.7-1.8,5.5-2.6,8.4c-0.8,2.9-1.6,5.5-2.2,7.9h-5.2c0.5-1.8,1.1-3.7,1.7-5.8c0.6-2.1,1.3-4.2,1.9-6.3
			c0.7-2.1,1.3-4.2,2-6.3c0.7-2,1.4-3.9,2-5.7h5c0.5,2,0.9,4.3,1.4,7c0.5,2.7,1,5.5,1.6,8.5c2.1-3.4,4-6.4,5.7-9
			c1.7-2.6,3.2-4.7,4.5-6.5h5.1c-0.1,1.7-0.3,3.5-0.5,5.5c-0.2,2-0.4,4-0.7,6.1c-0.3,2.1-0.6,4.2-0.9,6.3c-0.4,2.1-0.7,4.2-1.2,6.2
			h-5.5c0.6-2.4,1.1-5,1.7-7.9c0.6-2.8,1.1-5.6,1.5-8.3c-0.7,1-1.4,2.1-2.2,3.3c-0.8,1.2-1.5,2.3-2.3,3.5c-0.8,1.2-1.5,2.3-2.2,3.4
			c-0.7,1.1-1.3,2.1-1.9,3H169.4z"/>
	</g>
	<g id="g116" transform="translate(357.0947,126.5596)">
		<path id="path118" class="st1" d="M193.5,482.7c-0.2-0.9-0.3-1.9-0.6-3c-0.2-1.1-0.4-2.3-0.7-3.5c-0.2-1.2-0.5-2.4-0.7-3.6
			s-0.5-2.3-0.7-3.3c-0.9,2.7-1.8,5.5-2.6,8.4c-0.8,2.9-1.6,5.5-2.2,7.9h-5.2c0.5-1.8,1.1-3.7,1.7-5.8c0.6-2.1,1.3-4.2,1.9-6.3
			c0.7-2.1,1.3-4.2,2-6.3c0.7-2,1.4-3.9,2-5.7h5c0.5,2,0.9,4.3,1.4,7c0.5,2.7,1,5.5,1.6,8.5c2.1-3.4,4-6.4,5.7-9
			c1.7-2.6,3.2-4.7,4.5-6.5h5.1c-0.1,1.7-0.3,3.5-0.5,5.5c-0.2,2-0.4,4-0.7,6.1c-0.3,2.1-0.6,4.2-0.9,6.3c-0.4,2.1-0.7,4.2-1.2,6.2
			H203c0.6-2.4,1.1-5,1.7-7.9c0.6-2.8,1.1-5.6,1.5-8.3c-0.7,1-1.4,2.1-2.2,3.3c-0.8,1.2-1.5,2.3-2.3,3.5c-0.8,1.2-1.5,2.3-2.2,3.4
			c-0.7,1.1-1.3,2.1-1.9,3H193.5z"/>
	</g>
	<g id="g120" transform="translate(374.708,134.833)">
		<path id="path122" class="st1" d="M212.3,457.3c-0.9,0-1.8,0.2-2.6,0.6c-0.8,0.4-1.6,0.9-2.2,1.5c-0.6,0.6-1.2,1.4-1.7,2.3
			c-0.5,0.9-0.8,1.8-1,2.8c3.7-0.1,6.4-0.6,8-1.3c1.7-0.8,2.5-1.9,2.5-3.5c0-0.6-0.2-1.2-0.7-1.7
			C214.2,457.6,213.5,457.3,212.3,457.3 M199,468.7c0-2.1,0.3-4,1-6c0.7-1.9,1.6-3.6,2.9-5.1c1.2-1.5,2.7-2.7,4.5-3.6
			c1.7-0.9,3.7-1.3,5.9-1.3c2.3,0,4.1,0.6,5.4,1.8c1.3,1.2,1.9,2.7,1.9,4.6c0,1.9-0.5,3.5-1.4,4.7c-1,1.2-2.2,2.1-3.7,2.8
			c-1.5,0.7-3.2,1.1-5.2,1.4c-1.9,0.2-3.9,0.4-5.8,0.5c0,0.1,0,0.1,0,0.2v0.5c0,2.8,1.8,4.2,5.3,4.2c2.1,0,4.2-0.4,6.3-1.3l0.5,4.5
			c-0.7,0.3-1.8,0.7-3.1,1c-1.3,0.3-2.9,0.5-4.6,0.5s-3.2-0.2-4.4-0.7c-1.2-0.5-2.2-1.2-3-2c-0.8-0.9-1.4-1.9-1.7-3
			C199.1,471.2,199,470,199,468.7"/>
	</g>
	<g id="g124" transform="translate(380.4238,129.5176)">
		<path id="path126" class="st1" d="M218.5,473.6c0-2.1,0.3-4.1,1-6c0.7-1.9,1.6-3.5,2.8-5c1.2-1.4,2.7-2.6,4.5-3.4
			c1.8-0.8,3.8-1.2,6.1-1.2c1.2,0,2.3,0.1,3.3,0.3c1,0.2,1.9,0.5,2.8,0.9l-2,4.5c-0.6-0.2-1.2-0.5-1.8-0.6c-0.7-0.2-1.5-0.3-2.5-0.3
			c-1.3,0-2.5,0.3-3.6,0.8c-1.1,0.5-2,1.3-2.7,2.2s-1.3,2-1.7,3.3c-0.4,1.3-0.6,2.6-0.6,4c0,0.8,0.1,1.5,0.3,2.2
			c0.2,0.7,0.4,1.2,0.8,1.7c0.4,0.5,0.9,0.9,1.6,1.2c0.7,0.3,1.5,0.4,2.5,0.4c1,0,2-0.1,3-0.4c1-0.3,1.7-0.5,2.2-0.8l0.5,4.6
			c-0.7,0.3-1.6,0.7-2.8,1c-1.2,0.3-2.5,0.5-4,0.5c-1.7,0-3.1-0.3-4.4-0.8c-1.2-0.5-2.2-1.2-3.1-2.1c-0.8-0.9-1.4-1.9-1.8-3.1
			C218.7,476.3,218.5,475,218.5,473.6"/>
	</g>
	<g id="g128" transform="translate(393.3213,136.2559)">
		<path id="path130" class="st1" d="M232.3,452.9c1.2-0.4,2.6-0.7,4.1-1c1.5-0.3,3.2-0.5,5.1-0.5c1.4,0,2.5,0.2,3.5,0.6
			c0.9,0.4,1.7,1,2.4,1.7c0.9-0.5,2-1,3.2-1.5c1.3-0.5,2.7-0.8,4.3-0.8c1.4,0,2.6,0.2,3.6,0.6c1,0.4,1.8,1,2.4,1.7
			c0.6,0.7,1.1,1.5,1.3,2.5c0.3,1,0.4,2,0.4,3.2c0,1.3-0.2,2.6-0.5,4l-3,12.7h-5.6l2.8-12.1c0.2-0.6,0.3-1.2,0.4-1.9
			c0.1-0.7,0.2-1.4,0.2-2.1c0-0.5-0.1-1-0.2-1.4c-0.1-0.5-0.3-0.9-0.6-1.2c-0.3-0.3-0.7-0.6-1.1-0.8c-0.5-0.2-1.1-0.3-1.8-0.3
			c-0.8,0-1.6,0.2-2.3,0.5c-0.8,0.3-1.4,0.6-1.9,1c0.1,0.6,0.2,1.2,0.2,1.9c0,0.6,0,1.3-0.1,1.9c-0.1,0.7-0.2,1.3-0.4,2l-3,12.7
			h-5.6l2.9-12.1c0.2-0.6,0.3-1.2,0.4-1.9c0.1-0.7,0.2-1.4,0.2-2.1c0-1-0.2-1.9-0.7-2.6c-0.5-0.8-1.4-1.1-2.7-1.1
			c-0.6,0-1.2,0-1.8,0.1c-0.6,0.1-1.1,0.2-1.5,0.3l-4.6,19.5h-5.6L232.3,452.9z"/>
	</g>
	<g id="g132" transform="translate(416.9385,134.833)">
		<path id="path134" class="st1" d="M257.5,457.3c-0.9,0-1.8,0.2-2.6,0.6c-0.8,0.4-1.6,0.9-2.2,1.5c-0.6,0.6-1.2,1.4-1.7,2.3
			c-0.5,0.9-0.8,1.8-1,2.8c3.7-0.1,6.4-0.6,8-1.3c1.7-0.8,2.5-1.9,2.5-3.5c0-0.6-0.2-1.2-0.7-1.7
			C259.4,457.6,258.6,457.3,257.5,457.3 M244.1,468.7c0-2.1,0.3-4,1-6c0.7-1.9,1.6-3.6,2.9-5.1c1.2-1.5,2.7-2.7,4.5-3.6
			c1.7-0.9,3.7-1.3,5.9-1.3c2.3,0,4.1,0.6,5.4,1.8c1.3,1.2,1.9,2.7,1.9,4.6c0,1.9-0.5,3.5-1.4,4.7c-1,1.2-2.2,2.1-3.7,2.8
			c-1.5,0.7-3.2,1.1-5.2,1.4c-1.9,0.2-3.9,0.4-5.8,0.5c0,0.1,0,0.1,0,0.2v0.5c0,2.8,1.8,4.2,5.3,4.2c2.1,0,4.2-0.4,6.3-1.3l0.5,4.5
			c-0.7,0.3-1.8,0.7-3.1,1c-1.3,0.3-2.9,0.5-4.6,0.5c-1.7,0-3.2-0.2-4.4-0.7c-1.2-0.5-2.2-1.2-3-2c-0.8-0.9-1.4-1.9-1.7-3
			C244.3,471.2,244.1,470,244.1,468.7"/>
	</g>
	<g id="g136">
		<g id="g138">
		</g>
		<g id="g150">
			<g>
				<defs>
					<rect id="SVGID_1_" x="298.9" y="61.9" width="115.5" height="115.5"/>
				</defs>
				<clipPath id="SVGID_2_">
					<use xlink:href="#SVGID_1_"  style="overflow:visible;"/>
				</clipPath>
				<g id="g148" class="st2">
					<g id="g146" transform="translate(291.3379,377.4854)">
						<path id="path144" class="st3" d="M123.1-287.6L35.6-200l-28-28l87.6-87.6L123.1-287.6z"/>
					</g>
				</g>
			</g>
		</g>
	</g>
	<g id="g152" transform="translate(269.8604,285.4316)">
		<path id="path154" class="st4" d="M100.2-5L70.2,24.9L22.6-22.8c-7.7-7.7-7.3-20.7,1-29c8.3-8.3,21.2-8.7,29-1L100.2-5z"/>
	</g>
	<g id="g156" transform="translate(263.1025,292.189)">
		<path id="path158" class="st5" d="M92.9-25.8L63,4.2l28,28l29.9-29.9L92.9-25.8z"/>
	</g>
	<g id="g160">
		<g id="g162">
		</g>
		<g id="g174">
			<g>
				<defs>
					<rect id="SVGID_3_" x="152.3" y="67" width="267.2" height="291.3"/>
				</defs>
				<clipPath id="SVGID_4_">
					<use xlink:href="#SVGID_3_"  style="overflow:visible;"/>
				</clipPath>
				<g id="g172" class="st6">
					<g id="g170" transform="translate(263.1025,292.189)">
						<path id="path168" class="st5" d="M92.9-25.8l17.1-17.1c6.9-6.9,7.3-17.8,0.8-24.2L10.7-167.3l-75,75
							c-6.9,6.9-7.3,17.8-0.8,24.2l88.5,88.5c6.5,6.5,17.3,6.1,24.2-0.8L63,4.2l28,28L75.5,47.6C52.1,71,15.3,72.3-6.6,50.4
							l-88.5-88.5c-21.9-21.9-20.7-58.7,2.8-82.1l105-105L140.8-97.1c21.9,21.9,20.7,58.7-2.8,82.1L120.9,2.2L92.9-25.8z"/>
					</g>
				</g>
			</g>
		</g>
	</g>
	<g id="g176">
		<g id="g178">
		</g>
		<g id="g190">
			<g>
				<defs>
					<rect id="SVGID_5_" x="286.9" y="89.9" width="243.4" height="263.3"/>
				</defs>
				<clipPath id="SVGID_6_">
					<use xlink:href="#SVGID_5_"  style="overflow:visible;"/>
				</clipPath>
				<g id="g188" class="st7">
					<g id="g186" transform="translate(338.3994,289.4023)">
						<path id="path184" class="st3" d="M173.5-17.2L111,45.3C87.5,68.8,50.8,70,28.8,48.1L-46-26.7c-7.7-7.7-7.3-20.7,1-29
							s21.2-8.7,29-1l74.8,74.8c6.5,6.5,17.3,6.1,24.2-0.8l62.5-62.5c6.9-6.9,7.3-17.8,0.8-24.2L46.2-169.6l29.9-29.9L176.3-99.3
							C198.2-77.4,196.9-40.7,173.5-17.2"/>
					</g>
				</g>
			</g>
		</g>
	</g>
	<g id="g192">
		<g id="g194">
		</g>
		<g id="g206">
			<g>
				<defs>
					<rect id="SVGID_7_" x="303.9" y="244" width="21.8" height="21.8"/>
				</defs>
				<clipPath id="SVGID_8_">
					<use xlink:href="#SVGID_7_"  style="overflow:visible;"/>
				</clipPath>
				<g id="g204" class="st8">
					<g id="g202" transform="translate(246.8906,294.0581)">
						<path id="path200" class="st9" d="M75.6-31.5c-4.2,4.2-11.1,4.2-15.4,0c-4.2-4.2-4.2-11.1,0-15.4c4.2-4.2,11.1-4.2,15.4,0
							C79.8-42.6,79.8-35.8,75.6-31.5"/>
					</g>
				</g>
			</g>
		</g>
	</g>
</g>
</svg>
